<?xml version="1.0" encoding="UTF-8" standalone="no"?>
<!DOCTYPE svg PUBLIC "-//W3C//DTD SVG 20010904//EN"
              "http://www.w3.org/TR/2001/REC-SVG-20010904/DTD/svg10.dtd">

<svg xmlns="http://www.w3.org/2000/svg"
     width="0.888889in" height="0.888889in"
     viewBox="0 0 80 80">
  <path id="Импортированный контур"
        fill="black" stroke="black" stroke-width="0"
        d="M 60.45,23.64
           C 60.45,35.45 47.21,58.16 47.21,58.16
             47.21,58.16 32.79,58.18 32.79,58.18
             32.79,58.18 19.55,35.45 19.55,23.64
             19.55,12.67 26.37,3.65 40.00,3.65
             40.00,3.65 40.00,3.64 40.00,3.64
             53.64,3.64 60.45,12.67 60.45,23.64 Z
           M 40.00,8.20
           C 29.40,8.20 24.09,15.72 24.09,24.85
             24.09,34.70 34.39,53.65 34.39,53.65
             34.39,53.65 45.61,53.63 45.61,53.63
             45.61,53.63 55.91,34.70 55.91,24.85
             55.91,15.72 50.61,8.19 40.00,8.19
             40.00,8.19 40.00,8.20 40.00,8.20 Z
           M 37.73,62.73
           C 37.73,62.73 42.27,62.73 42.27,62.73
             42.27,62.73 49.09,62.73 49.09,62.73
             49.09,62.73 49.09,69.55 49.09,69.55
             49.09,73.32 46.05,76.36 42.27,76.36
             42.27,76.36 37.73,76.36 37.73,76.36
             33.95,76.36 30.91,73.32 30.91,69.55
             30.91,69.55 30.91,62.73 30.91,62.73
             30.91,62.73 37.73,62.73 37.73,62.73 Z" />
</svg>
