<?xml version="1.0" encoding="UTF-8" standalone="no"?>
<svg
   xmlns:dc="http://purl.org/dc/elements/1.1/"
   xmlns:cc="http://creativecommons.org/ns#"
   xmlns:rdf="http://www.w3.org/1999/02/22-rdf-syntax-ns#"
   xmlns:svg="http://www.w3.org/2000/svg"
   xmlns="http://www.w3.org/2000/svg"
   xmlns:sodipodi="http://sodipodi.sourceforge.net/DTD/sodipodi-0.dtd"
   xmlns:inkscape="http://www.inkscape.org/namespaces/inkscape"
   width="2.44444in"
   height="2.44444in"
   viewBox="0 0 220 220"
   version="1.1"
   id="svg3"
   sodipodi:docname="open-mon.svg"
   inkscape:version="0.92.1 r15371">
  <metadata
     id="metadata9">
    <rdf:RDF>
      <cc:Work
         rdf:about="">
        <dc:format>image/svg+xml</dc:format>
        <dc:type
           rdf:resource="http://purl.org/dc/dcmitype/StillImage" />
        <dc:title></dc:title>
      </cc:Work>
    </rdf:RDF>
  </metadata>
  <defs
     id="defs7" />
  <sodipodi:namedview
     pagecolor="#ffffff"
     bordercolor="#666666"
     borderopacity="1"
     objecttolerance="10"
     gridtolerance="10"
     guidetolerance="10"
     inkscape:pageopacity="0"
     inkscape:pageshadow="2"
     inkscape:window-width="640"
     inkscape:window-height="815"
     id="namedview5"
     showgrid="false"
     inkscape:zoom="0.70710678"
     inkscape:cx="91.667311"
     inkscape:cy="42.139687"
     inkscape:window-x="-4"
     inkscape:window-y="0"
     inkscape:window-maximized="0"
     inkscape:current-layer="svg3" />
  <path
     id="Выделение"
     fill="none"
     stroke="black"
     stroke-width="1"
     d="M 94.00,30.00            C 94.00,30.00 101.00,30.60 101.00,30.60              101.00,30.60 123.00,49.40 123.00,49.40              123.00,49.40 130.00,50.00 130.00,50.00              130.00,50.00 190.00,50.00 190.00,50.00              190.00,50.00 190.00,190.00 190.00,190.00              190.00,190.00 30.00,190.00 30.00,190.00              30.00,190.00 30.00,30.00 30.00,30.00              30.00,30.00 94.00,30.00 94.00,30.00 Z            M 59.00,90.00            C 66.82,89.85 68.72,86.27 74.00,81.00              74.00,81.00 90.00,65.00 90.00,65.00              92.50,62.50 101.97,53.76 102.66,51.00              103.07,49.36 102.52,48.33 101.63,47.00              97.62,41.01 93.65,40.01 87.00,40.00              87.00,40.00 40.00,40.00 40.00,40.00              40.00,40.00 40.00,90.00 40.00,90.00              40.00,90.00 59.00,90.00 59.00,90.00 Z            M 99.00,80.00            C 99.00,80.00 92.00,80.60 92.00,80.60              92.00,80.60 71.00,98.98 71.00,98.98              71.00,98.98 64.00,100.00 64.00,100.00              64.00,100.00 40.00,100.00 40.00,100.00              40.00,100.00 40.00,180.00 40.00,180.00              40.00,180.00 180.00,180.00 180.00,180.00              180.00,180.00 180.00,80.00 180.00,80.00              180.00,80.00 99.00,80.00 99.00,80.00 Z            M 120.44,92.28            C 124.00,96.49 122.59,103.96 116.96,105.57              105.84,108.74 99.97,94.27 112.00,89.61              115.38,89.28 118.05,89.44 120.44,92.28 Z            M 120.40,122.11            C 121.28,124.22 121.00,131.36 121.00,134.00              121.00,134.00 121.00,158.00 121.00,158.00              121.00,160.35 121.19,163.80 119.98,165.85              117.72,169.67 110.80,170.05 108.09,166.57              105.83,163.68 106.01,158.50 106.00,155.00              106.00,155.00 106.00,130.00 106.00,130.00              106.07,124.59 106.09,121.69 111.05,118.74              114.77,117.92 118.68,117.96 120.40,122.11 Z" />
  <path
     style="stroke-width:0.35155526"
     d="M 32.77573,117.26524 V 32.540422 h 33.078794 c 22.273599,0 34.473266,0.13239 37.347806,0.405295 l 4.26902,0.405296 11.55326,9.877696 c 6.35429,5.432732 11.97261,10.026563 12.48515,10.208513 0.5487,0.194789 15.20687,0.383229 35.64797,0.458277 l 34.71608,0.127459 v 73.983552 73.98355 H 117.32477 32.77573 Z m 159.87087,21.34345 0.089,-54.065142 -45.96696,0.135503 c -27.65662,0.08153 -46.60567,0.270754 -47.570383,0.475039 -1.414149,0.299455 -2.910375,1.484611 -12.67567,10.040345 l -11.072253,9.700815 -3.770181,0.56011 c -2.923723,0.43436 -6.688176,0.56011 -16.767085,0.56011 H 41.916166 v 43.1827 c 0,23.75049 0.10583,43.28854 0.235177,43.41789 0.129347,0.12934 34.023669,0.19526 75.320717,0.14648 l 75.08553,-0.0887 z M 67.955337,95.965117 C 69.005545,95.65802 70.576709,94.954526 71.446808,94.4018 72.316907,93.849071 81.030725,85.359792 90.810844,75.53673 111.66465,54.591372 111.44883,54.872817 109.63808,50.984263 107.66602,46.749324 102.91195,43.129143 98.340785,42.381486 97.091604,42.177172 85.15701,42.035656 69.07381,42.03445 l -27.157644,-0.002 v 27.245532 27.245533 h 12.064849 c 9.98641,0 12.393798,-0.09619 13.974322,-0.558362 z"
     id="path15"
     inkscape:connector-curvature="0"
     transform="scale(0.93750175)" />
  <path
     style="stroke-width:0.4971742"
     d="m 119.45897,112.02014 c -5.19024,-1.14324 -7.81825,-7.14903 -5.0724,-11.59192 0.61627,-0.997132 2.11835,-2.397761 3.33797,-3.112506 1.83371,-1.074622 2.65008,-1.25797 4.71693,-1.059372 1.37468,0.13209 3.09802,0.676026 3.82962,1.208747 1.67446,1.219261 3.56748,4.868131 3.56748,6.876461 0,2.19842 -1.98875,5.80645 -3.72881,6.76487 -1.87754,1.03414 -4.48055,1.39175 -6.65079,0.91372 z"
     id="path17"
     inkscape:connector-curvature="0"
     transform="scale(0.93750175)" />
  <path
     style="stroke-width:0.4971742"
     d="m 118.67118,178.91746 c -4.58742,-1.63204 -4.85429,-3.20499 -4.65435,-27.43296 0.15561,-18.85479 0.19405,-19.52331 1.20081,-20.88132 1.98407,-2.67627 4.13736,-3.75217 7.04285,-3.51897 3.07719,0.24697 4.8339,1.60409 5.58737,4.31642 0.28966,1.04272 0.49447,10.20021 0.49564,22.16117 0.002,18.42755 -0.0814,20.54778 -0.86728,22.08891 -1.65153,3.23885 -5.19162,4.55226 -8.80504,3.26675 z"
     id="path19"
     inkscape:connector-curvature="0"
     transform="scale(0.93750175)" />
  <path
     style="stroke-width:0.03107339"
     d="m 113.6265,150.94604 c 4.8e-4,-13.09516 0.01,-14.67156 0.0945,-15.82412 0.0773,-1.05366 0.23184,-2.05574 0.40842,-2.64901 0.0345,-0.11585 0.0357,-0.11653 0.20126,-0.11653 0.15647,0 0.16567,0.004 0.15159,0.0699 -0.10046,0.46848 -0.20718,1.91538 -0.26528,3.59674 -0.119,3.44336 -0.21176,11.90332 -0.2396,21.85236 l -0.0187,6.67301 h -0.16635 -0.16635 z"
     id="path21"
     inkscape:connector-curvature="0"
     transform="scale(0.93750175)" />
  <path
     style="stroke-width:0.00390625"
     d="m 113.6008,145.16779 v -2.02344 h 0.0143 0.0143 l -0.003,1.36816 c -0.001,0.75249 -0.003,1.66304 -0.003,2.02344 v 0.65527 H 113.6117 113.6 Z"
     id="path23"
     inkscape:connector-curvature="0"
     transform="scale(0.93750175)" />
</svg>
