<?xml version="1.0" encoding="UTF-8" standalone="no"?>
<svg
   xmlns:dc="http://purl.org/dc/elements/1.1/"
   xmlns:cc="http://creativecommons.org/ns#"
   xmlns:rdf="http://www.w3.org/1999/02/22-rdf-syntax-ns#"
   xmlns:svg="http://www.w3.org/2000/svg"
   xmlns="http://www.w3.org/2000/svg"
   xmlns:sodipodi="http://sodipodi.sourceforge.net/DTD/sodipodi-0.dtd"
   xmlns:inkscape="http://www.inkscape.org/namespaces/inkscape"
   width="2.44444in"
   height="2.44444in"
   viewBox="0 0 220 220"
   version="1.1"
   id="svg3"
   sodipodi:docname="open-mon.svg"
   inkscape:version="0.92.1 r15371">
  <metadata
     id="metadata9">
    <rdf:RDF>
      <cc:Work
         rdf:about="">
        <dc:format>image/svg+xml</dc:format>
        <dc:type
           rdf:resource="http://purl.org/dc/dcmitype/StillImage" />
        <dc:title></dc:title>
      </cc:Work>
    </rdf:RDF>
  </metadata>
  <defs
     id="defs7" />
  <sodipodi:namedview
     pagecolor="#ffffff"
     bordercolor="#666666"
     borderopacity="1"
     objecttolerance="10"
     gridtolerance="10"
     guidetolerance="10"
     inkscape:pageopacity="0"
     inkscape:pageshadow="2"
     inkscape:window-width="745"
     inkscape:window-height="684"
     id="namedview5"
     showgrid="false"
     inkscape:zoom="2.0113674"
     inkscape:cx="88.089276"
     inkscape:cy="131.73534"
     inkscape:window-x="208"
     inkscape:window-y="73"
     inkscape:window-maximized="0"
     inkscape:current-layer="svg3" />
  <path
     id="Выделение #1"
     fill="none"
     stroke="black"
     stroke-width="1"
     d="M 94.00,30.00            C 94.00,30.00 101.00,30.60 101.00,30.60              101.00,30.60 123.00,49.40 123.00,49.40              123.00,49.40 130.00,50.00 130.00,50.00              130.00,50.00 190.00,50.00 190.00,50.00              190.00,50.00 190.00,190.00 190.00,190.00              190.00,190.00 30.00,190.00 30.00,190.00              30.00,190.00 30.00,30.00 30.00,30.00              30.00,30.00 94.00,30.00 94.00,30.00 Z            M 59.00,90.00            C 66.82,89.85 68.72,86.27 74.00,81.00              74.00,81.00 90.00,65.00 90.00,65.00              92.50,62.50 101.97,53.76 102.66,51.00              103.07,49.36 102.52,48.33 101.63,47.00              97.62,41.01 93.65,40.01 87.00,40.00              87.00,40.00 40.00,40.00 40.00,40.00              40.00,40.00 40.00,90.00 40.00,90.00              40.00,90.00 59.00,90.00 59.00,90.00 Z            M 99.00,80.00            C 99.00,80.00 92.00,80.60 92.00,80.60              92.00,80.60 71.00,98.98 71.00,98.98              71.00,98.98 64.00,100.00 64.00,100.00              64.00,100.00 40.00,100.00 40.00,100.00              40.00,100.00 40.00,180.00 40.00,180.00              40.00,180.00 180.00,180.00 180.00,180.00              180.00,180.00 180.00,80.00 180.00,80.00              180.00,80.00 99.00,80.00 99.00,80.00 Z            M 107.00,126.00            C 106.94,121.61 106.50,116.90 102.07,114.64              97.53,112.32 92.52,116.09 90.45,120.02              87.17,126.22 88.01,138.82 88.00,146.00              88.00,147.71 88.13,151.21 87.40,152.69              86.01,155.52 82.06,155.32 80.43,152.69              78.88,150.19 79.00,144.92 79.00,142.00              79.00,142.00 79.00,117.00 79.00,117.00              79.01,114.47 78.91,110.48 80.31,108.31              81.91,105.86 84.43,106.09 87.00,106.00              87.00,106.00 87.00,112.00 87.00,112.00              96.01,103.95 107.09,102.88 115.00,113.00              120.19,103.02 138.85,103.18 142.47,114.00              144.64,120.48 144.00,132.81 144.00,140.00              144.00,143.03 144.28,149.26 143.11,151.85              141.52,155.38 137.61,155.40 136.02,153.40              134.77,151.82 135.00,147.98 135.00,146.00              135.00,146.00 135.00,128.00 135.00,128.00              134.98,124.59 135.08,121.04 133.15,118.12              129.41,112.27 122.75,113.10 118.85,118.12              115.84,122.12 116.01,126.34 116.00,131.00              116.00,131.00 116.00,147.00 116.00,147.00              115.97,149.15 116.11,152.52 114.26,154.01              112.81,155.18 109.79,154.98 108.00,155.00              106.29,145.46 107.12,135.66 107.00,126.00 Z" />
  <path
     style="stroke-width:0.99434841"
     d="M 33.012368,117.23368 V 33.211238 h 36.858202 36.8582 l 12.27173,10.440658 12.27172,10.440659 h 35.38968 35.3897 v 73.581785 73.58178 H 117.53198 33.012368 Z m 160.090092,21.3169 V 83.799822 l -47.04139,0.31018 c -39.86334,0.26285 -47.36321,0.537771 -49.150421,1.801702 -1.159966,0.820338 -6.689449,5.518634 -12.287738,10.440659 l -10.178708,8.949137 -16.241349,0.35078 -16.24135,0.35078 v 43.64913 43.64914 h 75.570476 75.57048 z M 69.486873,95.786453 C 72.4902,94.64459 100.32455,67.674935 106.70888,59.720768 c 2.12447,-2.646845 3.86267,-5.684506 3.86267,-6.750356 0,-1.065851 -1.75715,-3.822275 -3.90477,-6.125388 L 102.76202,42.657548 72.361763,42.367703 41.961504,42.077858 v 27.38584 27.385839 h 12.364623 c 6.800544,0 13.622879,-0.478388 15.160746,-1.063084 z"
     id="path819"
     inkscape:connector-curvature="0"
     transform="scale(0.93750175)" />
  <path
     style="stroke-width:0.99434841"
     d="m 87.358469,162.64682 c -1.426853,-1.57665 -1.645634,-4.74184 -1.645634,-23.80797 0,-21.59619 0.03953,-22.01727 2.209945,-23.53748 3.200147,-2.24147 3.756145,-1.95545 3.756145,1.93231 0,3.68468 0.990121,4.39002 2.911912,2.07441 1.967491,-2.37068 9.789013,-5.55463 13.645223,-5.55463 3.93366,0 11.57408,3.88875 13.14077,6.68827 0.83225,1.48715 1.26092,1.33336 3.76985,-1.35246 6.94934,-7.43929 19.6224,-6.75692 24.93637,1.34268 1.48773,2.26761 1.80281,5.55249 2.0758,21.64141 0.30693,18.08916 0.22717,19.05369 -1.72146,20.81717 -4.04283,3.65871 -4.82519,1.11964 -5.2716,-17.10852 -0.44343,-18.10613 -1.22342,-21.23159 -5.90235,-23.65116 -4.32088,-2.23442 -7.50339,-1.72594 -11.35796,1.81468 -4.54394,4.17385 -5.34846,7.86282 -5.37803,24.65984 -0.0251,14.27257 -0.49523,15.85986 -4.69716,15.85986 -2.15688,0 -2.29892,-0.41018 -2.49647,-7.20903 -0.1152,-3.96496 -0.0774,-9.67003 0.084,-12.67794 0.16142,-3.0079 -0.0121,-8.34395 -0.38552,-11.85789 -0.54933,-5.16867 -1.2155,-6.92545 -3.48777,-9.19772 -5.10965,-5.10965 -12.204833,-2.96007 -15.981689,4.84188 -1.980573,4.09132 -2.341444,6.65091 -2.7025,19.16833 -0.475827,16.4964 -1.558719,19.47114 -5.501912,15.11396 z"
     id="path821"
     inkscape:connector-curvature="0"
     transform="scale(0.93750175)" />
</svg>
