<?xml version="1.0" encoding="UTF-8" standalone="no"?>
<!DOCTYPE svg PUBLIC "-//W3C//DTD SVG 20010904//EN"
              "http://www.w3.org/TR/2001/REC-SVG-20010904/DTD/svg10.dtd">

<svg xmlns="http://www.w3.org/2000/svg"
     width="2.66667in" height="2.66667in"
     viewBox="0 0 240 240">
  <path id="Импортированный контур"
        stroke="black" stroke-width="1"
        d="M 160.00,47.07
           C 160.00,47.07 98.75,108.32 98.75,108.32
             98.75,108.32 87.07,120.00 87.07,120.00
             87.07,120.00 98.75,131.68 98.75,131.68
             98.75,131.68 160.00,192.93 160.00,192.93
             160.00,192.93 152.93,200.00 152.93,200.00
             152.93,200.00 91.68,138.75 91.68,138.75
             91.68,138.75 72.93,120.00 72.93,120.00
             72.93,120.00 91.68,101.25 91.68,101.25
             91.68,101.25 152.93,40.00 152.93,40.00
             152.93,40.00 160.00,47.07 160.00,47.07 Z" />
</svg>
